<svg xmlns="http://www.w3.org/2000/svg" xmlns:xlink="http://www.w3.org/1999/xlink" width="500" zoomAndPan="magnify" viewBox="0 0 375 374.999991" height="500" preserveAspectRatio="xMidYMid meet" version="1.0"><rect x="-37.5" width="450" fill="#ffffff" y="-37.499999" height="449.999989" fill-opacity="1"/><rect x="-37.5" width="450" fill="#ffffff" y="-37.499999" height="449.999989" fill-opacity="1"/><path fill="#38b6ff" d="M 79.546875 0 C 35.679688 0 0 35.679688 0 79.546875 L 0 295.453125 C 0 339.320312 35.679688 375 79.546875 375 L 295.453125 375 C 339.320312 375 375 339.320312 375 295.453125 L 375 79.546875 C 375 35.679688 339.320312 0 295.453125 0 Z M 79.546875 11.363281 L 295.453125 11.363281 C 333.179688 11.363281 363.636719 41.820312 363.636719 79.546875 L 363.636719 295.453125 C 363.636719 333.179688 333.179688 363.636719 295.453125 363.636719 L 79.546875 363.636719 C 41.820312 363.636719 11.363281 333.179688 11.363281 295.453125 L 11.363281 79.546875 C 11.363281 41.820312 41.820312 11.363281 79.546875 11.363281 Z M 93.75 28.410156 C 57.699219 28.410156 28.410156 57.699219 28.410156 93.75 L 28.410156 281.25 C 28.410156 317.300781 57.699219 346.589844 93.75 346.589844 L 281.25 346.589844 C 317.300781 346.589844 346.589844 317.300781 346.589844 281.25 L 346.589844 184.660156 C 346.597656 184.277344 346.527344 183.910156 346.386719 183.558594 C 346.246094 183.207031 346.039062 182.894531 345.773438 182.625 C 345.507812 182.351562 345.199219 182.144531 344.847656 181.996094 C 344.496094 181.851562 344.128906 181.777344 343.75 181.777344 C 343.371094 181.777344 343.003906 181.851562 342.652344 181.996094 C 342.300781 182.144531 341.992188 182.351562 341.726562 182.625 C 341.460938 182.894531 341.253906 183.207031 341.113281 183.558594 C 340.972656 183.910156 340.902344 184.277344 340.910156 184.660156 L 340.910156 281.25 C 340.910156 314.230469 314.230469 340.910156 281.25 340.910156 L 93.75 340.910156 C 60.769531 340.910156 34.089844 314.230469 34.089844 281.25 L 34.089844 93.75 C 34.089844 60.769531 60.769531 34.089844 93.75 34.089844 L 281.25 34.089844 C 283.054688 34.089844 284.855469 34.203125 286.675781 34.367188 C 287.050781 34.402344 287.417969 34.363281 287.777344 34.25 C 288.136719 34.136719 288.464844 33.960938 288.753906 33.71875 C 289.042969 33.480469 289.273438 33.191406 289.449219 32.855469 C 289.625 32.523438 289.726562 32.167969 289.761719 31.792969 C 289.796875 31.417969 289.757812 31.050781 289.644531 30.691406 C 289.53125 30.332031 289.355469 30.007812 289.113281 29.71875 C 288.871094 29.429688 288.585938 29.195312 288.25 29.023438 C 287.917969 28.847656 287.5625 28.742188 287.1875 28.707031 C 285.261719 28.535156 283.289062 28.410156 281.25 28.410156 Z M 134.621094 107.953125 C 123.132812 107.953125 113.511719 111.335938 105.757812 118.109375 C 98 124.875 94.128906 133.433594 94.128906 143.796875 C 94.128906 149.695312 96.28125 152.644531 100.574219 152.644531 C 102.863281 152.644531 104.6875 152.070312 106.046875 150.914062 C 107.414062 149.746094 108.085938 148.371094 108.085938 146.773438 C 108.085938 138.515625 110.5 132.171875 115.3125 127.753906 C 120.136719 123.332031 126.425781 121.128906 134.1875 121.128906 C 143.386719 121.128906 150.539062 124.011719 155.640625 129.773438 C 160.734375 135.539062 163.296875 142.175781 163.296875 149.667969 C 163.296875 156.589844 160.785156 163.320312 155.75 169.878906 C 150.714844 176.441406 144.605469 182.3125 137.417969 187.5 L 116.289062 202.847656 C 109.238281 208.039062 103.242188 213.734375 98.3125 219.925781 C 93.378906 226.125 90.910156 232.539062 90.910156 239.167969 L 90.910156 260.132812 C 90.910156 261.71875 91.625 263.054688 93.050781 264.125 C 94.484375 265.207031 95.992188 265.746094 97.554688 265.746094 L 173.839844 265.746094 C 175.269531 265.746094 176.480469 265.0625 177.480469 263.695312 C 178.480469 262.332031 178.988281 260.78125 178.988281 259.054688 C 178.988281 257.328125 178.46875 255.8125 177.46875 254.515625 C 176.460938 253.222656 175.25 252.574219 173.816406 252.574219 L 105.089844 252.574219 L 105.089844 239.167969 C 105.089844 234.703125 106.882812 230.203125 110.472656 225.664062 C 114.070312 221.125 118.527344 217.054688 123.847656 213.445312 L 141.300781 200.90625 C 147.621094 196.148438 153.433594 191.46875 158.746094 186.855469 C 164.054688 182.242188 168.507812 176.617188 172.097656 169.988281 C 175.683594 163.359375 177.480469 156.4375 177.480469 149.226562 C 177.480469 137.476562 173.417969 127.652344 165.304688 119.773438 C 157.191406 111.890625 146.96875 107.953125 134.621094 107.953125 Z M 240 107.953125 C 226.855469 107.953125 216.25 111.652344 208.164062 119.0625 C 200.066406 126.476562 196.023438 138.101562 196.023438 153.929688 L 196.023438 220.847656 C 196.023438 236.820312 200.066406 248.515625 208.164062 255.925781 C 216.242188 263.339844 226.855469 267.046875 240 267.046875 C 253.144531 267.046875 263.777344 263.347656 271.894531 255.9375 C 280.019531 248.527344 284.089844 236.824219 284.089844 220.847656 L 284.089844 153.929688 C 284.089844 138.101562 280.019531 126.484375 271.894531 119.074219 C 263.777344 111.660156 253.136719 107.953125 240 107.953125 Z M 343.707031 113.59375 C 343.328125 113.597656 342.96875 113.675781 342.621094 113.824219 C 342.277344 113.976562 341.972656 114.183594 341.710938 114.457031 C 341.449219 114.726562 341.246094 115.035156 341.109375 115.386719 C 340.96875 115.738281 340.902344 116.101562 340.910156 116.476562 L 340.910156 127.839844 C 340.902344 128.222656 340.972656 128.585938 341.113281 128.941406 C 341.253906 129.292969 341.460938 129.605469 341.726562 129.875 C 341.992188 130.148438 342.300781 130.355469 342.652344 130.503906 C 343.003906 130.648438 343.371094 130.722656 343.75 130.722656 C 344.128906 130.722656 344.496094 130.648438 344.847656 130.503906 C 345.199219 130.355469 345.507812 130.148438 345.773438 129.875 C 346.039062 129.605469 346.246094 129.292969 346.386719 128.941406 C 346.527344 128.585938 346.597656 128.222656 346.589844 127.839844 L 346.589844 116.476562 C 346.597656 116.09375 346.527344 115.722656 346.382812 115.367188 C 346.238281 115.011719 346.03125 114.695312 345.757812 114.421875 C 345.488281 114.152344 345.171875 113.945312 344.816406 113.800781 C 344.460938 113.65625 344.089844 113.585938 343.707031 113.59375 Z M 240.046875 121.117188 C 259.953125 121.117188 269.910156 132.054688 269.910156 153.929688 L 269.910156 220.847656 C 269.910156 242.863281 259.949219 253.882812 240.046875 253.882812 C 220.140625 253.882812 210.195312 242.863281 210.195312 220.847656 L 210.195312 153.929688 C 210.195312 132.054688 220.148438 121.117188 240.046875 121.117188 Z M 343.707031 142 C 343.328125 142.007812 342.96875 142.085938 342.621094 142.234375 C 342.277344 142.382812 341.972656 142.59375 341.710938 142.863281 C 341.449219 143.136719 341.246094 143.445312 341.109375 143.796875 C 340.96875 144.144531 340.902344 144.507812 340.910156 144.886719 L 340.910156 167.613281 C 340.902344 167.992188 340.972656 168.359375 341.113281 168.714844 C 341.253906 169.066406 341.460938 169.378906 341.726562 169.648438 C 341.992188 169.921875 342.300781 170.128906 342.652344 170.277344 C 343.003906 170.421875 343.371094 170.496094 343.75 170.496094 C 344.128906 170.496094 344.496094 170.421875 344.847656 170.277344 C 345.199219 170.128906 345.507812 169.921875 345.773438 169.648438 C 346.039062 169.378906 346.246094 169.066406 346.386719 168.714844 C 346.527344 168.359375 346.597656 167.992188 346.589844 167.613281 L 346.589844 144.886719 C 346.597656 144.5 346.527344 144.132812 346.382812 143.773438 C 346.238281 143.417969 346.03125 143.105469 345.757812 142.832031 C 345.488281 142.5625 345.171875 142.351562 344.816406 142.207031 C 344.460938 142.0625 344.089844 141.996094 343.707031 142 Z M 343.707031 142 " fill-opacity="1" fill-rule="nonzero"/></svg>